<svg version="1.1" viewBox="0 0 256 256" xmlns="http://www.w3.org/2000/svg">
 <path d="m253 128a125 125 0 0 1-125 125 125 125 0 0 1-125-125 125 125 0 0 1 125-125 125 125 0 0 1 125 125z" fill="#808080" stroke="#000" stroke-linecap="round" stroke-linejoin="round" stroke-width=".63"/>
 <text transform="matrix(19 0 0 19 128 -51)" fill="#000000" font-family="Garuda" font-size="16px" stroke-width=".053" style="line-height:1.25;shape-inside:url(#rect294);white-space:pre" xml:space="preserve"/>
 <g fill="none" stroke="#333" stroke-linecap="round" stroke-linejoin="round">
  <path d="m253 128a125 125 0 0 1-125 125 125 125 0 0 1-125-125 125 125 0 0 1 125-125 125 125 0 0 1 125 125z" stroke-width=".63"/>
  <g stroke-width="2">
   <path d="m171 128a43 125 0 0 1-43 125 43 125 0 0 1-43-125 43 125 0 0 1 43-125 43 125 0 0 1 43 125z"/>
   <path d="m215 128a87 125 0 0 1-87 125 87 125 0 0 1-87-125 87 125 0 0 1 87-125 87 125 0 0 1 87 125z"/>
   <path d="m128 209a125 81 0 0 1-125-81 125 81 0 0 1 125-81 125 81 0 0 1 125 81 125 81 0 0 1-125 81z"/>
   <path d="m128 166a124 38 0 0 1-124-38 124 38 0 0 1 124-38 124 38 0 0 1 124 38 124 38 0 0 1-124 38z"/>
   <path d="m128 236a125 108 0 0 1-125-108 125 108 0 0 1 125-108 125 108 0 0 1 125 108 125 108 0 0 1-125 108z"/>
   <path d="m20 128a108 125 0 0 1 108-125 108 125 0 0 1 108 125 108 125 0 0 1-108 125 108 125 0 0 1-108-125z"/>
   <path d="m191 128a63 125 0 0 1-63 125 63 125 0 0 1-63-125 63 125 0 0 1 63-125 63 125 0 0 1 63 125z"/>
   <path d="m128 188a125 60 0 0 1-125-60 125 60 0 0 1 125-60 125 60 0 0 1 125 60 125 60 0 0 1-125 60z"/>
   <path d="m128 146a125 18 0 0 1-125-18 125 18 0 0 1 125-18 125 18 0 0 1 125 18 125 18 0 0 1-125 18z"/>
   <path d="m109 128a19 125 0 0 1 19-125 19 125 0 0 1 19 125 19 125 0 0 1-19 125 19 125 0 0 1-19-125z"/>
  </g>
 </g>
</svg>
