<?xml version="1.0" encoding="UTF-8" standalone="no"?>
<!-- Created with Inkscape (http://www.inkscape.org/) -->

<svg
   width="16"
   height="16"
   viewBox="0 0 16 16"
   version="1.1"
   id="svg5"
   inkscape:version="1.2 (1:1.2.1+202207142221+cd75a1ee6d)"
   sodipodi:docname="globe.svg"
   xmlns:inkscape="http://www.inkscape.org/namespaces/inkscape"
   xmlns:sodipodi="http://sodipodi.sourceforge.net/DTD/sodipodi-0.dtd"
   xmlns="http://www.w3.org/2000/svg"
   xmlns:svg="http://www.w3.org/2000/svg">
  <sodipodi:namedview
     id="namedview7"
     pagecolor="#505050"
     bordercolor="#ffffff"
     borderopacity="1"
     inkscape:showpageshadow="0"
     inkscape:pageopacity="0"
     inkscape:pagecheckerboard="1"
     inkscape:deskcolor="#505050"
     inkscape:document-units="px"
     showgrid="false"
     inkscape:zoom="29.875"
     inkscape:cx="7.0125523"
     inkscape:cy="8.2343096"
     inkscape:window-width="1366"
     inkscape:window-height="703"
     inkscape:window-x="0"
     inkscape:window-y="0"
     inkscape:window-maximized="1"
     inkscape:current-layer="layer1" />
  <defs
     id="defs2">
    <rect
       x="-4.3833682"
       y="-0.044194561"
       width="31.188023"
       height="25.072176"
       id="rect294" />
  </defs>
  <g
     inkscape:label="Camada 1"
     inkscape:groupmode="layer"
     id="layer1">
    <path
       id="circle1099"
       style="fill:#808080;stroke:#000000;stroke-width:0.63426;stroke-linecap:round;stroke-linejoin:round"
       d="M 14.68287,8 A 6.6828704,6.6828704 0 0 1 8,14.68287 6.6828704,6.6828704 0 0 1 1.3171296,8 6.6828704,6.6828704 0 0 1 8,1.3171296 6.6828704,6.6828704 0 0 1 14.68287,8 Z" />
    <text
       xml:space="preserve"
       id="text292"
       style="font-style:normal;font-variant:normal;font-weight:normal;font-stretch:normal;font-size:16px;line-height:1.25;font-family:Garuda;-inkscape-font-specification:Garuda;white-space:pre;shape-inside:url(#rect294);fill:#000000"
       transform="translate(7.9908125,-1.5710781)"><tspan
         x="-4.3828125"
         y="15.395078"
         id="tspan472">?</tspan></text>
    <path
       id="path61"
       style="fill:none;stroke:#333333;stroke-width:0.63426;stroke-linecap:round;stroke-linejoin:round"
       d="M 14.68287,8 A 6.6828704,6.6828704 0 0 1 8,14.68287 6.6828704,6.6828704 0 0 1 1.3171296,8 6.6828704,6.6828704 0 0 1 8,1.3171296 6.6828704,6.6828704 0 0 1 14.68287,8 Z" />
    <path
       id="path845"
       style="fill:none;stroke:#333333;stroke-width:0.5;stroke-linecap:round;stroke-linejoin:round"
       d="M 9.6420633,8 A 1.6420633,6.7766738 0 0 1 8,14.776674 1.6420633,6.7766738 0 0 1 6.3579367,8 1.6420633,6.7766738 0 0 1 8,1.2233262 1.6420633,6.7766738 0 0 1 9.6420633,8 Z" />
    <path
       id="ellipse847"
       style="fill:none;stroke:#333333;stroke-width:0.5;stroke-linecap:round;stroke-linejoin:round"
       d="M 12.337278,8 A 4.3372779,6.7766738 0 0 1 8,14.776674 4.3372779,6.7766738 0 0 1 3.6627221,8 4.3372779,6.7766738 0 0 1 8,1.2233262 4.3372779,6.7766738 0 0 1 12.337278,8 Z" />
    <path
       id="ellipse849"
       style="fill:none;stroke:#333333;stroke-width:0.5;stroke-linecap:round;stroke-linejoin:round"
       d="M 8,12.337278 A 6.7766738,4.3372779 0 0 1 1.2233262,8 6.7766738,4.3372779 0 0 1 8,3.6627221 6.7766738,4.3372779 0 0 1 14.776674,8 6.7766738,4.3372779 0 0 1 8,12.337278 Z" />
    <path
       id="ellipse905"
       style="fill:none;stroke:#333333;stroke-width:0.5;stroke-linecap:round;stroke-linejoin:round"
       d="M 8,9.6420633 A 6.7766738,1.6420633 0 0 1 1.2233262,8 6.7766738,1.6420633 0 0 1 8,6.3579367 6.7766738,1.6420633 0 0 1 14.776674,8 6.7766738,1.6420633 0 0 1 8,9.6420633 Z" />
    <path
       id="path358"
       style="fill:#666666;stroke:#333333;stroke-width:0.5;stroke-linecap:round;stroke-linejoin:round"
       d="m 8,9.6420633 c -3.7426536,0 3.742654,0 0,0 z"
       sodipodi:nodetypes="ss" />
  </g>
</svg>
