<?xml version="1.0" encoding="UTF-8" standalone="no"?>
<svg
   version="1.1"
   viewBox="0 0 128 128"
   id="svg34"
   sodipodi:docname="globe_correct.svg"
   inkscape:version="1.2 (1:1.2.1+202207142221+cd75a1ee6d)"
   xmlns:inkscape="http://www.inkscape.org/namespaces/inkscape"
   xmlns:sodipodi="http://sodipodi.sourceforge.net/DTD/sodipodi-0.dtd"
   xmlns="http://www.w3.org/2000/svg"
   xmlns:svg="http://www.w3.org/2000/svg">
  <defs
     id="defs38" />
  <sodipodi:namedview
     id="namedview36"
     pagecolor="#505050"
     bordercolor="#ffffff"
     borderopacity="1"
     inkscape:showpageshadow="0"
     inkscape:pageopacity="0"
     inkscape:pagecheckerboard="1"
     inkscape:deskcolor="#505050"
     showgrid="false"
     inkscape:lockguides="true"
     inkscape:zoom="1.8893281"
     inkscape:cx="-20.642259"
     inkscape:cy="98.976987"
     inkscape:window-width="1366"
     inkscape:window-height="703"
     inkscape:window-x="0"
     inkscape:window-y="0"
     inkscape:window-maximized="1"
     inkscape:current-layer="svg34" />
  <path
     d="M 123.685,64 A 59.685,59.685 0 0 1 64,123.685 59.685,59.685 0 0 1 4.315,64 59.685,59.685 0 0 1 64,4.315 59.685,59.685 0 0 1 123.685,64 Z"
     fill="#808080"
     stroke="#000000"
     stroke-linecap="round"
     stroke-linejoin="round"
     stroke-width="0.63"
     id="path2"
     style="fill:#005500" />
  <text
     transform="matrix(9.3,0,0,9.3,64,-25.024)"
     fill="#000000"
     font-family="Garuda"
     font-size="16px"
     stroke-width="0.11"
     style="line-height:1.25;white-space:pre;shape-inside:url(#rect294)"
     xml:space="preserve"
     id="text4" />
  <path
     d="M 84.75902,64 A 20.759021,59.685 0 0 1 64,123.685 20.759021,59.685 0 0 1 43.240979,64 20.759021,59.685 0 0 1 64,4.315 20.759021,59.685 0 0 1 84.75902,64 Z"
     fill="#808080"
     stroke="#000000"
     stroke-linecap="round"
     stroke-linejoin="round"
     stroke-width="0.629999"
     id="path403"
     style="fill:none" />
  <path
     d="M 64,84.75902 A 59.685,20.759021 0 0 1 4.3149995,64 59.685,20.759021 0 0 1 64,43.240979 59.685,20.759021 0 0 1 123.685,64 59.685,20.759021 0 0 1 64,84.75902 Z"
     fill="#808080"
     stroke="#000000"
     stroke-linecap="round"
     stroke-linejoin="round"
     stroke-width="0.629999"
     id="path405"
     style="fill:none" />
  <path
     d="M 64,107.93091 A 59.685,43.930908 0 0 1 4.3149995,63.999998 59.685,43.930908 0 0 1 64,20.069092 59.685,43.930908 0 0 1 123.685,63.999998 59.685,43.930908 0 0 1 64,107.93091 Z"
     fill="#808080"
     stroke="#000000"
     stroke-linecap="round"
     stroke-linejoin="round"
     stroke-width="0.629999"
     id="path407"
     style="fill:none" />
  <path
     d="M 107.93091,64.000001 A 43.930908,59.685 0 0 1 63.999997,123.685 43.930908,59.685 0 0 1 20.069091,64.000001 43.930908,59.685 0 0 1 63.999997,4.3150007 43.930908,59.685 0 0 1 107.93091,64.000001 Z"
     fill="#808080"
     stroke="#000000"
     stroke-linecap="round"
     stroke-linejoin="round"
     stroke-width="0.629999"
     id="path409"
     style="fill:none" />
  <g
     id="g3498"
     transform="translate(-2.5685348,-2.1380574)"
     style="stroke:none;fill:#ffffff">
    <path
       id="rect698"
       style="fill:#ffffff;stroke:none;stroke-linecap:round;stroke-linejoin:round;stroke-opacity:1"
       d="m 48.513494,61.8277 14.760643,14.760642 c 3.562236,3.562237 3.562236,9.297824 -1e-6,12.860061 -3.562236,3.562237 -9.297824,3.562237 -12.86006,0 L 35.653433,74.687761 c -3.562236,-3.562237 -3.562236,-9.297825 0,-12.860061 3.562237,-3.562237 9.297825,-3.562237 12.860061,0 z" />
    <path
       id="rect705"
       style="fill:#ffffff;stroke:none;stroke-linecap:round;stroke-linejoin:round"
       d="M 84.615836,42.804903 50.414688,76.611151 c -3.58286,3.541494 -3.562236,9.297824 0,12.860061 3.562237,3.562237 9.2772,3.541493 12.860061,0 L 97.475897,55.664964 c 3.582863,-3.541494 3.562233,-9.297825 0,-12.860062 -3.562237,-3.562236 -9.2772,-3.541492 -12.860061,1e-6 z"
       sodipodi:nodetypes="sssssss" />
  </g>
</svg>
