<svg version="1.1" viewBox="0 0 64 64" xmlns="http://www.w3.org/2000/svg">
 <g transform="matrix(4.5 0 0 4.5 -4.3 -4.3)" stroke-width=".22">
  <path d="m15 8a6.7 6.7 0 0 1-6.7 6.7 6.7 6.7 0 0 1-6.7-6.7 6.7 6.7 0 0 1 6.7-6.7 6.7 6.7 0 0 1 6.7 6.7z" fill="#808080" stroke="#000" stroke-linecap="round" stroke-linejoin="round" stroke-width=".14"/>
  <text transform="translate(8 -1.6)" fill="#000000" font-family="Garuda" font-size="16px" stroke-width=".22" style="line-height:1.25;shape-inside:url(#rect294);white-space:pre" xml:space="preserve"/>
  <g fill="none" stroke="#333" stroke-linecap="round" stroke-linejoin="round">
   <path d="m15 8a6.7 6.7 0 0 1-6.7 6.7 6.7 6.7 0 0 1-6.7-6.7 6.7 6.7 0 0 1 6.7-6.7 6.7 6.7 0 0 1 6.7 6.7z" stroke-width=".14"/>
   <g stroke-width=".11">
    <path d="m9.6 8a1.6 6.8 0 0 1-1.6 6.8 1.6 6.8 0 0 1-1.6-6.8 1.6 6.8 0 0 1 1.6-6.8 1.6 6.8 0 0 1 1.6 6.8z"/>
    <path d="m12 8a4.3 6.8 0 0 1-4.3 6.8 4.3 6.8 0 0 1-4.3-6.8 4.3 6.8 0 0 1 4.3-6.8 4.3 6.8 0 0 1 4.3 6.8z"/>
    <path d="m8 12a6.8 4.3 0 0 1-6.8-4.3 6.8 4.3 0 0 1 6.8-4.3 6.8 4.3 0 0 1 6.8 4.3 6.8 4.3 0 0 1-6.8 4.3z"/>
    <path d="m8 9.6a6.8 1.6 0 0 1-6.8-1.6 6.8 1.6 0 0 1 6.8-1.6 6.8 1.6 0 0 1 6.8 1.6 6.8 1.6 0 0 1-6.8 1.6z"/>
   </g>
  </g>
  <path d="m8 9.6c-3.7 0 3.7 0 0 0z" fill="#666" stroke="#333" stroke-linecap="round" stroke-linejoin="round" stroke-width=".11"/>
 </g>
</svg>
